<svg width="64" height="64" viewBox="0 0 64 64" fill="none" xmlns="http://www.w3.org/2000/svg">
<path d="M54.4 19.04V52.1632C54.4 53.8336 52.9536 54.6304 51.2 55.8752C49.792 56.8768 48 55.6352 48 53.9968V21.632C48 20.9568 47.7632 20.3136 46.9952 19.92C46.2272 19.5264 22.2336 6.91201 22.2336 6.91201C21.8464 6.76801 20.1568 5.70241 17.904 6.86081C15.7632 7.96161 14.5984 9.15841 14.3008 9.72161L40.4768 24.064C41.1712 24.4288 41.6 24.992 41.6 25.7152V60.2816C41.592 60.6715 41.4779 61.0519 41.2698 61.3818C41.0617 61.7116 40.7676 61.9785 40.4192 62.1536C40.0877 62.3167 39.723 62.401 39.3536 62.4C38.9191 62.4045 38.4918 62.2894 38.1184 62.0672C37.4304 61.648 13.2416 46.816 11.6448 45.8528C10.8768 45.392 9.97757 44.448 9.95837 43.7472L9.59997 10.832C9.59997 10.1984 9.52637 9.08161 10.5248 7.52961C12.7552 4.06081 20.5376 0.115212 24.4768 2.16001L53.2736 16.736C53.968 17.0944 54.4 17.8112 54.4 19.04Z" fill="#428BF9"/>
</svg>
