<svg width="40" height="40" viewBox="0 0 40 40" fill="none" xmlns="http://www.w3.org/2000/svg">
<circle cx="20" cy="20" r="20" fill="#A1B3C3"/>
<path d="M27.5 15.0588C27.5 13.1092 26.66 11.3445 25.304 10.0682C23.9465 8.79059 22.0715 8 20 8C17.9285 8 16.0535 8.79059 14.696 10.0682C13.34 11.3445 12.5 13.1092 12.5 15.0588C12.5 17.0085 13.34 18.7732 14.696 20.0494C16.0535 21.3271 17.9285 22.1176 20 22.1176C22.0715 22.1176 23.9465 21.3271 25.304 20.0494C26.0015 19.3949 26.5547 18.617 26.9316 17.7605C27.3084 16.904 27.5016 15.9859 27.5 15.0588ZM11 29.1765C11 30.5882 14.375 32 20 32C25.277 32 29 30.5882 29 29.1765C29 26.3529 25.469 23.5294 20 23.5294C14.375 23.5294 11 26.3529 11 29.1765Z" fill="white"/>
</svg>
